<?xml version="1.0" encoding="utf-8"?>
<svg
  xmlns="http://www.w3.org/2000/svg"
  width="800"
  height="800"
  viewBox="0 0 1024 1024"
  fill="none"
>
  <style>
    :root {
      --icon-accent: #ffd45a;
      --icon-outline: #201b14;
      --icon-spark: #f0b93f;
    }

    @media (prefers-color-scheme: dark) {
      :root {
        --icon-accent: #d4b062;
        --icon-outline: #fff8e7;
        --icon-spark: #d4b062;
      }
    }

    .icon-accent {
      fill: var(--icon-accent);
    }

    .icon-outline {
      fill: var(--icon-outline);
    }

    .icon-spark {
      fill: var(--icon-spark);
    }
  </style>

  <path
    class="icon-accent"
    d="M195.2 534.4l147.2-147.2c73.6-1.6 140.8 28.8 203.2 91.2 62.4 62.4 92.8 129.6 91.2 203.2l-147.2 147.2c-81.6 81.6-212.8 81.6-294.4 0s-81.6-212.8 0-294.4z"
  />
  <path
    class="icon-outline"
    d="M217.6 556.8c-68.8 68.8-68.8 180.8 0 249.6s180.8 68.8 249.6 0l339.2-339.2c68.8-68.8 68.8-180.8 0-249.6s-180.8-68.8-249.6 0L217.6 556.8z m-22.4-22.4l339.2-339.2c81.6-81.6 212.8-81.6 294.4 0s81.6 212.8 0 294.4L489.6 828.8c-81.6 81.6-212.8 81.6-294.4 0s-81.6-212.8 0-294.4z"
  />
  <path
    class="icon-spark"
    d="M590.4 433.6c-12.8 12.8-32 12.8-44.8 0-12.8-12.8-12.8-32 0-44.8 12.8-12.8 32-12.8 44.8 0 12.8 11.2 12.8 32 0 44.8z m136 67.2c-12.8 12.8-32 12.8-44.8 0s-12.8-32 0-44.8 32-12.8 44.8 0 12.8 32 0 44.8z m17.6-176c-9.6 9.6-24 9.6-33.6 0-9.6-9.6-9.6-24 0-33.6 9.6-9.6 24-9.6 33.6 0s9.6 24 0 33.6z m62.4-16c-6.4 6.4-16 6.4-22.4 0-6.4-6.4-6.4-16 0-22.4 6.4-6.4 16-6.4 22.4 0 6.4 4.8 6.4 16 0 22.4zM704 251.2c-6.4 6.4-16 6.4-22.4 0s-6.4-16 0-22.4 16-6.4 22.4 0c6.4 6.4 6.4 16 0 22.4z m-22.4 158.4c-6.4 6.4-16 6.4-22.4 0-6.4-6.4-6.4-16 0-22.4 6.4-6.4 16-6.4 22.4 0 6.4 6.4 6.4 16 0 22.4z m-124.8-100.8c-6.4 6.4-16 6.4-22.4 0-6.4-6.4-6.4-16 0-22.4 6.4-6.4 16-6.4 22.4 0 6.4 4.8 6.4 16 0 22.4z m107.2-17.6c-16 16-41.6 16-56 0s-16-41.6 0-56 41.6-16 56 0 16 40 0 56z"
  />
</svg>
